<?xml version="1.0" encoding="UTF-8"?>
<svg version="1.1" xmlns="http://www.w3.org/2000/svg" width="512" height="512">
<path d="M0 0 C1.19746857 -0.00511093 2.39493713 -0.01022186 3.62869263 -0.01548767 C6.90154495 -0.02698211 10.1742397 -0.02946101 13.44710684 -0.02692437 C16.18549493 -0.02585164 18.92385989 -0.0307458 21.66224301 -0.03552979 C28.12640891 -0.04661072 34.5905167 -0.04707057 41.0546875 -0.04101562 C47.70872421 -0.03497835 54.36254933 -0.0472837 61.01654994 -0.06858569 C66.74245224 -0.08623803 72.46828741 -0.09219729 78.19421589 -0.08894795 C81.60828415 -0.08714049 85.02220151 -0.08971708 88.43624496 -0.10366249 C92.24672421 -0.11601892 96.05671587 -0.10923915 99.8671875 -0.09765625 C101.54914215 -0.10912186 101.54914215 -0.10912186 103.26507568 -0.12081909 C110.41607381 -0.07285101 116.28772484 0.5751778 122.27001953 4.8527832 C128.5745853 11.41812177 130.24747866 15.97973486 130.12939453 25.0246582 C130.12220398 26.07073242 130.12220398 26.07073242 130.11486816 27.13793945 C130.10240721 28.85022102 130.08335267 30.56245239 130.06298828 32.2746582 C130.70498421 32.27189282 131.34698013 32.26912745 132.00843048 32.26627827 C147.65012502 32.19994314 163.29177043 32.15034108 178.93357086 32.11922169 C186.49792034 32.10377148 194.06217575 32.08271744 201.62646484 32.04833984 C208.22168655 32.01838075 214.81684011 31.99906978 221.41212797 31.99239272 C224.90232501 31.98849144 228.39232715 31.97936181 231.88246155 31.95746803 C235.78447037 31.93319048 239.6862908 31.93269239 243.58837891 31.93408203 C245.31252518 31.91790329 245.31252518 31.91790329 247.07150269 31.90139771 C254.30704119 31.92925417 260.21531512 32.52340164 266.27001953 36.8527832 C266.79982422 37.40450195 267.32962891 37.9562207 267.87548828 38.5246582 C268.41818359 39.06606445 268.96087891 39.6074707 269.52001953 40.1652832 C273.5232431 45.63804453 274.50324206 50.71047657 274.41461182 57.37858582 C274.41717362 58.55938696 274.41717362 58.55938696 274.41978717 59.76404268 C274.4220378 62.38653602 274.40307631 65.00843905 274.38427734 67.63085938 C274.38183256 69.51700209 274.38080592 71.4031471 274.38108826 73.28929138 C274.37926384 77.34296572 274.36860882 81.39648688 274.35141754 85.45012474 C274.32548905 91.85777314 274.32657063 98.2652402 274.33270264 104.67292786 C274.34629478 122.89075721 274.32851206 141.10842246 274.27246094 159.32617188 C274.24171968 169.39376103 274.23587969 179.46105265 274.25734687 189.52866918 C274.26948672 195.90132443 274.25053345 202.27289951 274.20886183 208.64541852 C274.19028304 212.60417973 274.20080913 216.56246094 274.21971321 220.52120399 C274.22262224 222.35947932 274.21348577 224.19781823 274.1915493 226.03596497 C274.16334757 228.54248692 274.17797275 231.04521479 274.20343018 233.55168152 C274.18488487 234.28231739 274.16633957 235.01295326 274.14723229 235.76572961 C274.125758 238.07013412 274.125758 238.07013412 275.06298828 241.2746582 C277.28049621 243.13981433 279.3815002 244.05185644 282.06298828 245.2746582 C283.98876953 247.02075195 283.98876953 247.02075195 285.37548828 248.7121582 C285.84599609 249.26774414 286.31650391 249.82333008 286.80126953 250.39575195 C290.08526337 255.28615764 290.35321453 259.88937563 290.33041382 265.64265442 C290.33494493 266.4824938 290.33947604 267.32233319 290.34414446 268.18762225 C290.35679932 271.00030028 290.35516739 273.81278494 290.35351562 276.62548828 C290.35950021 278.64277902 290.36630559 280.66006747 290.37387085 282.67735291 C290.39154554 288.15677031 290.39622686 293.63612525 290.39750242 299.1155684 C290.39940169 303.69056123 290.40675957 308.26553952 290.41384661 312.84052676 C290.4301339 323.63539122 290.43501527 334.43022232 290.43359375 345.22509766 C290.43239233 356.35808549 290.45349346 367.49087945 290.48508108 378.62381822 C290.51123919 388.18405914 290.52196123 397.74423672 290.52068293 407.30451316 C290.52017315 413.01350606 290.52586558 418.72232671 290.54703903 424.43128395 C290.56641334 429.80181967 290.56655122 435.17201866 290.55200577 440.5425663 C290.54991556 442.5113728 290.55463118 444.48020034 290.56672668 446.44897079 C290.58219523 449.14161193 290.57286057 451.83309434 290.5574646 454.52571106 C290.56775173 455.30053308 290.57803885 456.0753551 290.58863771 456.87365657 C290.50616625 463.42310643 288.41175244 468.54552738 284.13330078 473.5168457 C283.49134766 474.05567383 282.84939453 474.59450195 282.18798828 475.1496582 C281.55119141 475.70395508 280.91439453 476.25825195 280.25830078 476.8293457 C275.27611873 480.10942997 270.23563488 480.56600565 264.41293526 480.5291338 C263.65877105 480.53234027 262.90460684 480.53554675 262.12758917 480.5388504 C259.59809437 480.547158 257.06883587 480.54122346 254.53933716 480.53535461 C252.70844742 480.53837495 250.87755894 480.54226384 249.0466727 480.54694718 C244.01335325 480.55725112 238.98010483 480.55503926 233.94677949 480.55076659 C228.5192705 480.54830371 223.09177881 480.55730807 217.66427612 480.56480408 C207.03036542 480.57756533 196.39647995 480.57934299 185.76256289 480.57700381 C177.12051305 480.57522208 168.47847088 480.57696718 159.83642197 480.58122826 C157.99271546 480.58212104 157.99271546 480.58212104 156.11176237 480.58303186 C153.61490942 480.58424359 151.11805647 480.58545772 148.62120353 480.58667424 C125.86400134 480.59724496 103.10681249 480.59577977 80.34960947 480.58980629 C59.57778275 480.58444899 38.80599849 480.59237961 18.03417969 480.61083984 C-5.3031169 480.63155576 -28.64038737 480.64225224 -51.97769368 480.63826436 C-64.33433535 480.63635025 -76.69093835 480.63886021 -89.04757309 480.6529789 C-99.56689167 480.66487645 -110.08614777 480.66631585 -120.60546719 480.65418873 C-125.97349693 480.64828862 -131.3414123 480.64723188 -136.70943451 480.65919113 C-141.62317682 480.67001118 -146.53670872 480.66699285 -151.45044102 480.65292945 C-153.22831945 480.65027181 -155.00621418 480.65268238 -156.78407668 480.66066531 C-159.20139703 480.67076637 -161.61798529 480.66235401 -164.03527641 480.64938831 C-164.72487459 480.65669766 -165.41447278 480.66400701 -166.12496787 480.67153785 C-172.03147542 480.60590883 -177.29776865 479.16183378 -182.14404297 475.6965332 C-182.67384766 475.14481445 -183.20365234 474.5930957 -183.74951172 474.0246582 C-184.29220703 473.48325195 -184.83490234 472.9418457 -185.39404297 472.3840332 C-189.56846412 466.67722961 -190.37786311 461.52872955 -190.32469177 454.66615295 C-190.33007731 453.82460472 -190.33546285 452.98305649 -190.34101158 452.11600679 C-190.35526501 449.30944617 -190.34819393 446.50335894 -190.34106445 443.69677734 C-190.34676937 441.67919029 -190.35373411 439.66160646 -190.36186218 437.64402771 C-190.37979488 432.17295858 -190.37862499 426.70204982 -190.3729198 421.23096013 C-190.36982821 416.66083257 -190.37592006 412.09073583 -190.38195854 407.52061266 C-190.39600245 396.73816228 -190.39444349 385.95579114 -190.38305664 375.17333984 C-190.37157451 364.05506923 -190.38565311 352.93703981 -190.41245311 341.81880099 C-190.43461399 332.26700425 -190.44124663 322.7152832 -190.4353767 313.16346258 C-190.432007 307.46121694 -190.43442329 301.75912592 -190.45162773 296.05690193 C-190.46710091 290.69453198 -190.46313693 285.33251921 -190.44432259 279.97016335 C-190.44063782 278.00458596 -190.44374188 276.03898208 -190.45420837 274.07342911 C-190.46742762 271.38525806 -190.45586274 268.6982679 -190.43821716 266.01014709 C-190.44782217 265.23668932 -190.45742718 264.46323154 -190.46732324 263.66633564 C-190.37886126 257.09370747 -188.2945376 251.91273419 -183.90185547 246.99731445 C-183.23283203 246.44946289 -182.56380859 245.90161133 -181.87451172 245.3371582 C-181.20291016 244.77125977 -180.53130859 244.20536133 -179.83935547 243.62231445 C-177.93701172 242.2746582 -177.93701172 242.2746582 -174.93701172 241.2746582 C-174.93481188 239.80144482 -174.93481188 239.80144482 -174.9325676 238.29846954 C-174.89596398 214.39492141 -174.836503 190.49151329 -174.75310898 166.58808136 C-174.71330868 155.0285265 -174.68092118 143.46903981 -174.66601562 131.90942383 C-174.6530043 121.83343561 -174.62605276 111.75759733 -174.58239865 101.68169355 C-174.55977233 96.34712339 -174.54410175 91.01273825 -174.54512787 85.67811584 C-174.54587378 80.65477114 -174.52795048 75.63183563 -174.49584389 70.6085968 C-174.48734041 68.76721056 -174.485598 66.92577844 -174.49120903 65.0843811 C-174.4978638 62.56436407 -174.47989407 60.04564341 -174.45599365 57.52575684 C-174.46375407 56.80199749 -174.47151449 56.07823815 -174.47951007 55.33254671 C-174.37298484 48.96071447 -172.16123431 43.85907879 -168.00732422 39.0324707 C-167.36537109 38.49364258 -166.72341797 37.95481445 -166.06201172 37.3996582 C-165.42521484 36.84536133 -164.78841797 36.29106445 -164.13232422 35.7199707 C-157.75286244 31.51996918 -151.04462141 32.00188138 -143.68945312 32.04760742 C-142.45962708 32.04731537 -141.22980103 32.04702332 -139.96270752 32.04672241 C-136.60356852 32.04787419 -133.24467757 32.05788099 -129.88558245 32.07187033 C-126.37021146 32.08440186 -122.8548369 32.08555009 -119.33944702 32.08792114 C-112.6884965 32.09412881 -106.03761199 32.11052993 -99.3866905 32.13062012 C-91.8123396 32.15300137 -84.23798549 32.16397814 -76.66360974 32.17401099 C-61.08803888 32.19489682 -45.51253382 32.23005887 -29.93701172 32.2746582 C-29.95441406 31.24405273 -29.97181641 30.21344727 -29.98974609 29.15161133 C-30.00382063 27.78638104 -30.01747011 26.42114633 -30.03076172 25.0559082 C-30.04961426 24.03932129 -30.04961426 24.03932129 -30.06884766 23.00219727 C-30.11880026 16.15869047 -28.71617317 12.24303916 -24.10107422 7.3137207 C-16.659487 0.32832274 -9.86694289 -0.02172168 0 0 Z M-11.93701172 19.2746582 C-14.71761353 23.69834291 -13.93701172 26.63590451 -13.93701172 32.2746582 C28.30298828 32.2746582 70.54298828 32.2746582 114.06298828 32.2746582 C114.31612073 24.4674791 114.31612073 24.4674791 111.06298828 18.2746582 C106.23135419 15.42000739 100.73953643 15.98680934 95.30932617 16 C94.22583389 15.99488907 93.14234161 15.98977814 92.02601624 15.98451233 C88.44583609 15.97061677 84.86584844 15.97157305 81.28564453 15.97387695 C78.79609607 15.96999014 76.30654828 15.9656555 73.81700134 15.96089172 C68.59925181 15.95342968 63.38156995 15.95372082 58.16381836 15.95898438 C52.80664874 15.96435662 47.44966808 15.95731027 42.0925293 15.93847656 C35.62229382 15.91602082 29.15221619 15.9082235 22.68194389 15.91214943 C20.21678557 15.91163598 17.75162353 15.90639385 15.28648567 15.89633751 C11.83948898 15.88400116 8.39303296 15.89074839 4.94604492 15.90234375 C3.41926117 15.89087814 3.41926117 15.89087814 1.8616333 15.87918091 C-3.47420654 15.91885332 -7.35797172 16.20365796 -11.93701172 19.2746582 Z M-155.93701172 51.2746582 C-158.36168082 55.22078536 -158.21495572 59.35438194 -158.17752075 63.86128235 C-158.1792296 64.61692811 -158.18093845 65.37257387 -158.18269908 66.15111798 C-158.1859885 68.67847907 -158.17499939 71.20557359 -158.1640625 73.73291016 C-158.16349827 75.54643243 -158.16381518 77.35995516 -158.16494751 79.17347717 C-158.16552155 84.09455177 -158.15375884 89.01552895 -158.13979959 93.9365809 C-158.12730087 99.08020805 -158.12612241 104.22383742 -158.12374878 109.36747742 C-158.11753149 119.10672346 -158.10111729 128.84592462 -158.0810498 138.5851509 C-158.05869856 149.67332046 -158.04769932 160.76149216 -158.03765893 171.84967864 C-158.0167513 194.65803089 -157.9811678 217.46634014 -157.93701172 240.2746582 C-152.65701172 240.2746582 -147.37701172 240.2746582 -141.93701172 240.2746582 C-141.92670425 238.12649094 -141.91639679 235.97832367 -141.90577698 233.76506042 C-141.80836387 213.56069469 -141.70553214 193.35636177 -141.59767246 173.15204906 C-141.54234648 162.76381246 -141.48886549 152.37557242 -141.43969727 141.98730469 C-141.3968478 132.93504572 -141.35056785 123.88281198 -141.30013317 114.83059198 C-141.2735384 110.03558508 -141.24868545 105.24058316 -141.2279377 100.4455471 C-141.20836827 95.9353443 -141.18422352 91.42518948 -141.15652084 86.91502953 C-141.14715204 85.25697703 -141.13947614 83.59891401 -141.13359261 81.94084549 C-141.12532854 79.68224645 -141.11105101 77.42376378 -141.0952301 75.16520691 C-141.08877755 73.89958514 -141.082325 72.63396338 -141.07567692 71.32998943 C-140.93701172 68.2746582 -140.93701172 68.2746582 -139.93701172 65.2746582 C-14.53701172 65.2746582 110.86298828 65.2746582 240.06298828 65.2746582 C241.22362802 68.75657743 241.20246783 71.48971858 241.22120667 75.16520691 C241.22614464 75.87014119 241.23108262 76.57507547 241.23617023 77.3013714 C241.25155698 79.66901082 241.25990903 82.03662311 241.26831055 84.40429688 C241.27788815 86.09930155 241.28789816 87.79430383 241.29830933 89.48930359 C241.32537725 94.09640173 241.3463766 98.70351013 241.36631131 103.31064391 C241.38815921 108.12331885 241.41555375 112.93596208 241.44236755 117.74861145 C241.49231062 126.86456419 241.53724347 135.98053451 241.58038992 145.09652168 C241.6297485 155.47368196 241.68467174 165.85081044 241.74006951 176.22793996 C241.85391433 197.57681659 241.96055055 218.92572406 242.06298828 240.2746582 C247.34298828 240.2746582 252.62298828 240.2746582 258.06298828 240.2746582 C258.13242198 216.38768038 258.1859654 192.50072685 258.2184248 168.61366844 C258.23389655 157.52260275 258.25499203 146.43160089 258.28930664 135.34057617 C258.31919948 125.67413466 258.33856104 116.00773937 258.34525377 106.34125292 C258.3491662 101.22247319 258.3583675 96.10382571 258.38017845 90.98508835 C258.40054171 86.16706626 258.40682237 81.34923092 258.40231133 76.53116989 C258.40313659 74.76309189 258.40910319 72.99500764 258.42060471 71.22696686 C258.43554644 68.81159448 258.43193597 66.39692577 258.42375183 63.98153687 C258.43249036 63.28307943 258.44122888 62.58462199 258.45023221 61.86499918 C258.40836658 57.28890204 257.63816345 54.07755972 255.06298828 50.2746582 C251.08742007 48.1825964 247.66498492 48.02336862 243.21756077 48.02018261 C242.53823965 48.01697613 241.85891854 48.01376965 241.15901193 48.01046601 C238.87810342 48.0021513 236.59745649 48.00809536 234.31654358 48.01396179 C232.66658255 48.01094178 231.01662292 48.00705306 229.36666578 48.00236923 C224.82889264 47.99206116 220.29119825 47.99427818 215.75341856 47.99854982 C210.86104004 48.00101194 205.96868074 47.9920093 201.0763092 47.98451233 C191.49036118 47.97174917 181.90444114 47.96997363 172.31848604 47.97231259 C164.52879767 47.97409404 156.73911782 47.97234985 148.94943047 47.96808815 C147.84169576 47.96749296 146.73396105 47.96689777 145.59265862 47.96628455 C143.34246068 47.96507282 141.09226273 47.96385869 138.84206479 47.96264217 C117.72980259 47.95176049 96.61755635 47.95393215 75.50529324 47.96002702 C56.18119681 47.96519725 36.85715077 47.95393902 17.53306431 47.9349288 C-2.29884536 47.91556823 -22.13073117 47.90729123 -41.96265036 47.91105205 C-53.10081329 47.91296674 -64.23893331 47.9104505 -75.37708855 47.89633751 C-84.85857714 47.88444545 -94.33999642 47.88299437 -103.82148593 47.89512768 C-108.66067081 47.90103155 -113.49972878 47.90207424 -118.33890533 47.89012527 C-122.76716341 47.87931784 -127.19518782 47.88230823 -131.62343473 47.89638696 C-133.2270152 47.89904811 -134.83061369 47.89662314 -136.43417656 47.8886511 C-138.61164875 47.87857565 -140.78830388 47.88693997 -142.96574306 47.89992809 C-144.17585944 47.89987308 -145.38597581 47.89981806 -146.63276237 47.89976138 C-150.34505264 48.32095412 -152.7591027 49.33752072 -155.93701172 51.2746582 Z M-125.93701172 80.2746582 C-125.93701172 133.0746582 -125.93701172 185.8746582 -125.93701172 240.2746582 C-110.09701172 240.2746582 -94.25701172 240.2746582 -77.93701172 240.2746582 C-77.89576172 235.7577832 -77.85451172 231.2409082 -77.81201172 226.5871582 C-77.79380371 225.17088135 -77.7755957 223.75460449 -77.75683594 222.29541016 C-77.75184082 221.17094482 -77.7468457 220.04647949 -77.74169922 218.88793945 C-77.73122559 217.74107666 -77.72075195 216.59421387 -77.70996094 215.41259766 C-78.06849913 210.45744568 -79.10895371 208.03981125 -82.76513672 204.66137695 C-83.90058608 203.7551146 -85.04147016 202.85562966 -86.18701172 201.9621582 C-99.89938499 190.74447263 -107.65994338 175.1333802 -109.74951172 157.5246582 C-110.84608171 139.91100272 -105.22531391 122.69980944 -93.93701172 109.1496582 C-88.38994972 103.22330992 -78.41531545 94.75103244 -70.06201172 94.0246582 C-66.52944829 94.30726328 -65.43616393 94.83348286 -62.93701172 97.2746582 C-62.51896667 99.45959473 -62.51896667 99.45959473 -62.62915039 102.03051758 C-62.65784714 102.99582397 -62.68654388 103.96113037 -62.71611023 104.95568848 C-62.784851 106.52123474 -62.784851 106.52123474 -62.85498047 108.1184082 C-62.89411209 110.33710206 -62.92980765 112.55585868 -62.96240234 114.7746582 C-63.03217125 118.26848925 -63.1236995 121.75605424 -63.27612305 125.24731445 C-64.26560764 137.85150075 -64.26560764 137.85150075 -60.48834229 149.48657227 C-56.59124061 153.62312658 -52.27990636 156.39070085 -46.93701172 158.2746582 C-44.26949198 157.82582895 -44.26949198 157.82582895 -41.93701172 156.2746582 C-40.41333984 155.64503174 -40.41333984 155.64503174 -38.85888672 155.00268555 C-35.05498365 152.88348524 -32.17471491 151.07679659 -29.93701172 147.2746582 C-27.83827135 139.09791802 -28.66751662 130.25867277 -28.93701172 121.8996582 C-29.0057384 118.42439502 -29.05741323 114.9500164 -29.08837891 111.47421265 C-29.11209172 109.31804875 -29.16012177 107.16198708 -29.23486328 105.00698853 C-29.25387695 104.03522675 -29.27289063 103.06346497 -29.29248047 102.06225586 C-29.33344849 100.78060043 -29.33344849 100.78060043 -29.37524414 99.47305298 C-28.93701172 97.2746582 -28.93701172 97.2746582 -27.09521484 95.49887085 C-24.13955655 93.82231213 -22.29679449 93.86996668 -18.93701172 94.2746582 C-2.90828467 101.19664559 6.63616197 113.49367558 13.80126953 128.90356445 C19.92235116 145.25803332 18.83286065 164.42047508 11.74267578 180.21606445 C6.49387451 190.52723417 -0.35255864 198.29204889 -9.61669922 205.16918945 C-12.40774565 207.39293938 -12.40774565 207.39293938 -13.93701172 212.2746582 C-13.93701172 221.5146582 -13.93701172 230.7546582 -13.93701172 240.2746582 C23.02298828 240.2746582 59.98298828 240.2746582 98.06298828 240.2746582 C98.06298828 219.1546582 98.06298828 198.0346582 98.06298828 176.2746582 C94.10298828 175.9446582 90.14298828 175.6146582 86.06298828 175.2746582 C82.68798828 171.8996582 82.68798828 171.8996582 82.55126953 168.04418945 C82.51582031 167.24174805 82.48037109 166.43930664 82.44384766 165.61254883 C82.42128906 164.77916992 82.39873047 163.94579102 82.37548828 163.0871582 C82.34132813 162.24217773 82.30716797 161.39719727 82.27197266 160.52661133 C82.18957358 158.44309171 82.12460184 156.35889604 82.06298828 154.2746582 C72.07660073 157.22739762 66.98985541 165.74156868 60.86376953 173.6809082 C57.57108193 177.9386742 54.11814376 182.0534934 50.64501953 186.1652832 C48.86298828 188.10187174 48.86298828 188.10187174 49.06298828 190.2746582 C46.44971343 191.14574982 44.75587657 191.4634562 42.06298828 191.5246582 C41.38236328 191.55043945 40.70173828 191.5762207 40.00048828 191.6027832 C37.35251182 191.15433558 36.66241405 190.43402207 35.06298828 188.2746582 C34.67480469 185.27880859 34.67480469 185.27880859 34.66455078 181.62231445 C34.66024551 180.63925575 34.66024551 180.63925575 34.65585327 179.63633728 C34.65381192 178.24517964 34.65934688 176.85399335 34.671875 175.46289062 C34.68769865 173.37536728 34.67215345 171.28984943 34.65283203 169.20239258 C34.6226508 150.45747 40.66826122 132.01909377 53.68798828 118.1496582 C68.99391413 103.75972406 87.31027182 96.78722 108.23876953 96.84106445 C110.05286568 96.83320168 110.05286568 96.83320168 111.90361023 96.82518005 C114.43890622 96.8188016 116.97423196 96.8200421 119.50952148 96.82861328 C123.38269327 96.83717413 127.25441287 96.80821889 131.12744141 96.77661133 C133.60205034 96.77500027 136.07666188 96.77557501 138.55126953 96.77856445 C140.27800652 96.76171349 140.27800652 96.76171349 142.03962708 96.74452209 C148.5996189 96.80140249 152.75323176 97.30914384 158.06298828 101.2746582 C160.82266423 104.77024774 161.55271527 107.88631033 162.06298828 112.2746582 C164.70298828 112.2746582 167.34298828 112.2746582 170.06298828 112.2746582 C170.40330078 110.4493457 170.40330078 110.4493457 170.75048828 108.5871582 C171.98621054 103.63550517 174.51379057 100.84846272 178.86743164 98.16064453 C183.47431475 96.30160096 188.7274735 96.94837651 193.62548828 96.9621582 C195.34928711 96.93798828 195.34928711 96.93798828 197.10791016 96.91333008 C198.208125 96.91268555 199.30833984 96.91204102 200.44189453 96.91137695 C201.9511853 96.90690552 201.9511853 96.90690552 203.4909668 96.90234375 C206.06298828 97.2746582 206.06298828 97.2746582 207.69947815 98.36653137 C209.76106692 101.2515652 209.44453092 103.66183652 209.45117188 107.17700195 C209.45905731 108.22381638 209.45905731 108.22381638 209.46710205 109.29177856 C209.48030674 111.5987994 209.47156283 113.90513034 209.46142578 116.2121582 C209.46344639 117.81494275 209.46635773 119.41772641 209.47012329 121.02050781 C209.47454726 124.37972771 209.46811341 127.73870831 209.45410156 131.09790039 C209.43700944 135.40572659 209.44685026 139.7129921 209.46481895 144.02079773 C209.47565494 147.33048738 209.47221135 150.64004391 209.46443558 153.94973755 C209.46243305 155.53817816 209.46489471 157.12663083 209.47187424 158.71505737 C209.47948591 160.93446916 209.46788973 163.15297055 209.45117188 165.37231445 C209.4487851 166.63567627 209.44639832 167.89903809 209.44393921 169.20068359 C209.06298828 172.2746582 209.06298828 172.2746582 207.69650269 174.18080139 C203.86378291 176.74732093 198.25233443 175.73987262 193.81298828 175.7121582 C192.69279297 175.73213867 191.57259766 175.75211914 190.41845703 175.77270508 C183.74806101 175.76876742 179.4466869 175.32361714 174.06298828 171.2746582 C171.30331233 167.77906866 170.57326129 164.66300607 170.06298828 160.2746582 C167.42298828 160.2746582 164.78298828 160.2746582 162.06298828 160.2746582 C162.02560547 161.10610352 161.98822266 161.93754883 161.94970703 162.79418945 C161.88396484 163.88086914 161.81822266 164.96754883 161.75048828 166.0871582 C161.69248047 167.16610352 161.63447266 168.24504883 161.57470703 169.35668945 C161.06298828 172.2746582 161.06298828 172.2746582 158.06298828 175.2746582 C152.12298828 175.7696582 152.12298828 175.7696582 146.06298828 176.2746582 C146.06298828 197.3946582 146.06298828 218.5146582 146.06298828 240.2746582 C172.46298828 240.2746582 198.86298828 240.2746582 226.06298828 240.2746582 C226.06298828 187.4746582 226.06298828 134.6746582 226.06298828 80.2746582 C109.90298828 80.2746582 -6.25701172 80.2746582 -125.93701172 80.2746582 Z M70.06298828 125.2746582 C70.06298828 125.9346582 70.06298828 126.5946582 70.06298828 127.2746582 C69.47259766 127.52473633 68.88220703 127.77481445 68.27392578 128.0324707 C60.6952143 132.29047468 56.22222146 142.56869078 53.06298828 150.2746582 C52.44015947 152.70860764 52.17742499 154.7570507 52.06298828 157.2746582 C52.82611328 156.5115332 53.58923828 155.7484082 54.37548828 154.9621582 C55.85480165 153.48284483 57.34431849 152.01273008 58.87548828 150.5871582 C60.28662606 149.32247549 60.28662606 149.32247549 60.06298828 147.2746582 C60.83642578 146.9343457 60.83642578 146.9343457 61.62548828 146.5871582 C63.72397066 145.45720615 65.37635464 144.28416371 67.25048828 142.8371582 C75.2766897 137.11383314 84.34691383 136.00082839 94.06298828 137.2746582 C97.06298828 140.2746582 97.06298828 140.2746582 98.06298828 160.2746582 C113.90298828 160.2746582 129.74298828 160.2746582 146.06298828 160.2746582 C146.39298828 156.3146582 146.72298828 152.3546582 147.06298828 148.2746582 C147.39298828 147.2846582 147.72298828 146.2946582 148.06298828 145.2746582 C159.94298828 145.2746582 171.82298828 145.2746582 184.06298828 145.2746582 C185.11714009 148.43711362 185.375745 151.14414038 185.62548828 154.4621582 C185.70927734 155.54883789 185.79306641 156.63551758 185.87939453 157.75512695 C185.93998047 158.58657227 186.00056641 159.41801758 186.06298828 160.2746582 C188.70298828 160.2746582 191.34298828 160.2746582 194.06298828 160.2746582 C194.06298828 144.4346582 194.06298828 128.5946582 194.06298828 112.2746582 C191.42298828 112.2746582 188.78298828 112.2746582 186.06298828 112.2746582 C186.00240234 113.10610352 185.94181641 113.93754883 185.87939453 114.79418945 C185.79560547 115.88086914 185.71181641 116.96754883 185.62548828 118.0871582 C185.50367188 119.70557617 185.50367188 119.70557617 185.37939453 121.35668945 C185.06298828 124.2746582 185.06298828 124.2746582 184.06298828 127.2746582 C172.18298828 127.2746582 160.30298828 127.2746582 148.06298828 127.2746582 C147.00883648 124.11220279 146.75023156 121.40517602 146.50048828 118.0871582 C146.41669922 117.00047852 146.33291016 115.91379883 146.24658203 114.79418945 C146.18599609 113.96274414 146.12541016 113.13129883 146.06298828 112.2746582 C140.48031876 112.22462739 134.89778428 112.18864507 129.31494141 112.16479492 C127.42201459 112.15483553 125.52910274 112.14126313 123.63623047 112.1237793 C104.65284546 111.95302927 85.31928751 112.13728942 70.06298828 125.2746582 Z M-80.60888672 119.8215332 C-90.56198964 130.373319 -94.24782325 142.95829274 -93.85107422 157.40356445 C-92.64957259 167.42942803 -87.72431096 177.80304278 -80.93701172 185.2746582 C-80.27701172 185.2746582 -79.61701172 185.2746582 -78.93701172 185.2746582 C-78.93701172 185.9346582 -78.93701172 186.5946582 -78.93701172 187.2746582 C-76.76436517 189.31921879 -76.76436517 189.31921879 -74.06201172 191.3996582 C-73.15708984 192.12411133 -72.25216797 192.84856445 -71.31982422 193.5949707 C-69.15045361 195.46671054 -69.15045361 195.46671054 -66.93701172 195.2746582 C-66.27034505 196.94132487 -65.60367839 198.60799154 -64.93701172 200.2746582 C-64.59234863 200.98968506 -64.24768555 201.70471191 -63.89257812 202.44140625 C-62.65845073 206.10059082 -62.58260543 209.59861747 -62.52294922 213.41918945 C-62.50358307 214.18897629 -62.48421692 214.95876312 -62.46426392 215.75187683 C-62.40475549 218.19685991 -62.35819877 220.64189082 -62.31201172 223.0871582 C-62.27380541 224.75058955 -62.23475215 226.41400167 -62.19482422 228.07739258 C-62.0974919 232.14304453 -62.01769777 236.20850582 -61.93701172 240.2746582 C-51.37701172 240.2746582 -40.81701172 240.2746582 -29.93701172 240.2746582 C-29.92283203 237.86411133 -29.90865234 235.45356445 -29.89404297 232.9699707 C-29.86332061 230.60329769 -29.82425893 228.2368965 -29.78442383 225.87036133 C-29.76140348 224.24122924 -29.74688603 222.61195169 -29.74145508 220.98266602 C-29.6988082 210.28814167 -29.58449016 201.04785106 -21.65576172 192.94262695 C-20.92357422 192.45407227 -20.19138672 191.96551758 -19.43701172 191.4621582 C-18.65712891 190.90786133 -17.87724609 190.35356445 -17.07373047 189.7824707 C-16.36861328 189.28489258 -15.66349609 188.78731445 -14.93701172 188.2746582 C-4.14493378 178.48649449 1.23299636 166.84186337 2.06298828 152.2746582 C1.44837233 138.97373866 -3.09767374 127.37834475 -12.93701172 118.2746582 C-13.26701172 118.2746582 -13.59701172 118.2746582 -13.93701172 118.2746582 C-13.93064697 119.39437012 -13.92428223 120.51408203 -13.91772461 121.66772461 C-13.90324772 125.83916424 -13.93470174 130.00923328 -13.97973633 134.18041992 C-13.99284145 135.98245572 -13.99364195 137.78462611 -13.98168945 139.58666992 C-13.96662736 142.18452303 -13.99642954 144.77867071 -14.03466797 147.3762207 C-14.02041275 148.1764566 -14.00615753 148.9766925 -13.99147034 149.80117798 C-14.07742824 153.15418023 -14.21443938 155.39232461 -16.38372803 158.04124451 C-18.16401264 159.59748062 -19.97782144 160.95275632 -21.93701172 162.2746582 C-22.77893066 162.88801025 -23.62084961 163.5013623 -24.48828125 164.13330078 C-27.00762893 165.79290458 -29.52989608 167.44708035 -32.06201172 169.0871582 C-32.94244141 169.67174805 -33.82287109 170.25633789 -34.72998047 170.85864258 C-35.58462891 171.41487305 -36.43927734 171.97110352 -37.31982422 172.54418945 C-38.08697754 173.04539307 -38.85413086 173.54659668 -39.64453125 174.06298828 C-42.7365759 175.69726065 -45.37948491 176.7243426 -48.83032227 175.72802734 C-54.37077489 172.71924024 -59.57142445 169.30569418 -64.74951172 165.7121582 C-65.59449219 165.13530273 -66.43947266 164.55844727 -67.31005859 163.96411133 C-74.74782283 158.84215613 -74.74782283 158.84215613 -76.93701172 156.2746582 C-77.26833053 153.34068138 -77.42571278 150.60756339 -77.44873047 147.66918945 C-77.47565727 146.41038216 -77.47565727 146.41038216 -77.50312805 145.12614441 C-77.55729735 142.44653341 -77.59114745 139.76710118 -77.62451172 137.0871582 C-77.65767901 135.270076 -77.69216812 133.4530174 -77.72802734 131.63598633 C-77.81302744 127.18233916 -77.87980674 122.72874561 -77.93701172 118.2746582 C-79.19429533 118.16146914 -79.19429533 118.16146914 -80.60888672 119.8215332 Z M114.06298828 176.2746582 C114.06298828 197.3946582 114.06298828 218.5146582 114.06298828 240.2746582 C119.34298828 240.2746582 124.62298828 240.2746582 130.06298828 240.2746582 C130.06298828 219.1546582 130.06298828 198.0346582 130.06298828 176.2746582 C124.78298828 176.2746582 119.50298828 176.2746582 114.06298828 176.2746582 Z M-171.93701172 259.2746582 C-174.41271218 263.27759092 -174.22145889 267.54703292 -174.19770813 272.12461853 C-174.20153368 272.90869931 -174.20535922 273.6927801 -174.2093007 274.5006209 C-174.2196087 277.12450583 -174.21564275 279.74817103 -174.21166992 282.37207031 C-174.2160176 284.25467633 -174.22120093 286.13728058 -174.22715759 288.0198822 C-174.24055247 293.13141614 -174.24112574 298.24287617 -174.23859429 303.35442424 C-174.23752497 307.62142424 -174.24240694 311.88840926 -174.24719971 316.15540606 C-174.25829648 326.22145397 -174.25873127 336.28746456 -174.25268555 346.35351562 C-174.24664392 356.73897812 -174.25896121 367.1243052 -174.28025562 377.50974458 C-174.29786601 386.42622235 -174.30387388 395.342657 -174.30061787 404.25915152 C-174.29880406 409.58463412 -174.30145105 414.91002012 -174.31533241 420.23548698 C-174.32789703 425.2431968 -174.32597955 430.25069534 -174.31292152 435.25840187 C-174.31055326 437.09581447 -174.31329935 438.93324188 -174.32154465 440.77063751 C-174.33199269 443.27990878 -174.32392731 445.78846856 -174.31123352 448.29771423 C-174.31860781 449.02388866 -174.32598209 449.75006308 -174.33357984 450.4982428 C-174.28421231 455.14056924 -173.56330376 458.41922354 -170.93701172 462.2746582 C-166.82709731 464.46683576 -163.19704159 464.52608009 -158.59182835 464.5291338 C-157.49180473 464.53394351 -157.49180473 464.53394351 -156.36955842 464.5388504 C-153.90486752 464.54717148 -151.44041828 464.54121878 -148.97572327 464.53535461 C-147.19376876 464.53837433 -145.41181554 464.54226291 -143.62986463 464.54694718 C-138.72724293 464.55725901 -133.8246941 464.55503727 -128.92206633 464.55076659 C-123.63704675 464.54830514 -118.35204497 464.55730625 -113.06703186 464.56480408 C-102.71105338 464.57756913 -92.3551008 464.57934254 -81.99911577 464.57700381 C-73.5839508 464.57522258 -65.16879371 464.5769661 -56.75362968 464.58122826 C-55.55708342 464.58182345 -54.36053715 464.58241863 -53.1277319 464.58303186 C-50.69714996 464.58424358 -48.26656801 464.58545771 -45.83598607 464.58667424 C-23.02980029 464.59755664 -0.22362929 464.59538391 22.58255733 464.58928939 C43.45861861 464.58411908 64.33463325 464.59537745 85.21068531 464.61438761 C106.63365208 464.63374663 128.05659677 464.64202545 149.47957236 464.63826436 C161.51199571 464.63634944 173.54437935 464.63886818 185.57679558 464.6529789 C195.81951676 464.66486899 206.06217378 464.66632426 216.30489581 464.65418873 C221.53292851 464.64828347 226.76084371 464.64724598 231.98886871 464.65919113 C236.77240195 464.66999389 241.55571881 464.66701377 246.33924169 464.65292945 C248.07202724 464.650267 249.80482945 464.65269725 251.53759872 464.66066531 C253.88931667 464.67073107 256.24027657 464.6623844 258.59196377 464.64938831 C259.89928854 464.64944333 261.20661332 464.64949834 262.553554 464.64955503 C266.38007152 464.24078565 268.80101696 463.28553826 272.06298828 461.2746582 C274.53868875 457.27172549 274.34743546 453.00228349 274.32368469 448.42469788 C274.32751024 447.64061709 274.33133579 446.85653631 274.33527726 446.0486955 C274.34558527 443.42481058 274.34161931 440.80114538 274.33764648 438.17724609 C274.34199416 436.29464007 274.3471775 434.41203582 274.35313416 432.5294342 C274.36652903 427.41790026 274.3671023 422.30644024 274.36457086 417.19489217 C274.36350153 412.92789217 274.3683835 408.66090714 274.37317628 404.39391035 C274.38427304 394.32786244 274.38470783 384.26185185 274.37866211 374.19580078 C274.37262048 363.81033829 274.38493777 353.42501121 274.40623218 343.03957182 C274.42384257 334.12309405 274.42985044 325.20665941 274.42659444 316.29016489 C274.42478062 310.96468228 274.42742761 305.63929629 274.44130898 300.31382942 C274.4538736 295.3061196 274.45195611 290.29862107 274.43889809 285.29091454 C274.43652983 283.45350193 274.43927591 281.61607452 274.44752121 279.77867889 C274.45796925 277.26940762 274.44990388 274.76084785 274.43721008 272.25160217 C274.44458437 271.52542775 274.45195865 270.79925332 274.4595564 270.05107361 C274.41018888 265.40874717 273.68928032 262.13009287 271.06298828 258.2746582 C266.95307387 256.08248065 263.32301815 256.02323632 258.71780491 256.02018261 C257.6177813 256.01537289 257.6177813 256.01537289 256.49553499 256.01046601 C254.03084408 256.00214493 251.56639484 256.00809763 249.10169983 256.01396179 C247.31974532 256.01094207 245.53779211 256.0070535 243.7558412 256.00236923 C238.85321949 255.9920574 233.95067066 255.99427913 229.04804289 255.99854982 C223.76302331 256.00101126 218.47802154 255.99201015 213.19300842 255.98451233 C202.83702994 255.97174728 192.48107736 255.96997387 182.12509234 255.97231259 C173.70992736 255.97409382 165.29477027 255.9723503 156.87960625 255.96808815 C155.68305998 255.96749296 154.48651371 255.96689777 153.25370846 255.96628455 C150.82312652 255.96507283 148.39254458 255.96385869 145.96196263 255.96264217 C123.15577685 255.95175976 100.34960585 255.9539325 77.54341923 255.96002702 C56.66735795 255.96519733 35.79134331 255.95393895 14.91529126 255.9349288 C-6.50767552 255.91556978 -27.93062021 255.90729096 -49.35359579 255.91105205 C-61.38601914 255.91296697 -73.41840278 255.91044823 -85.45081902 255.89633751 C-95.6935402 255.88444742 -105.93619722 255.88299214 -116.17891925 255.89512768 C-121.40695194 255.90103294 -126.63486715 255.90207042 -131.86289215 255.89012527 C-136.64642539 255.87932252 -141.42974225 255.88230264 -146.21326513 255.89638696 C-147.94605068 255.89904941 -149.67885288 255.89661916 -151.41162216 255.8886511 C-153.7633401 255.87858534 -156.11430001 255.88693201 -158.46598721 255.89992809 C-159.77331198 255.89987308 -161.08063676 255.89981806 -162.42757744 255.89976138 C-166.25409496 256.30853076 -168.67504039 257.26377815 -171.93701172 259.2746582 Z " fill="#000000" transform="translate(205.93701171875,15.725341796875)"/>
<path d="M0 0 C1.30929474 -0.00708481 2.61858948 -0.01416962 3.96755981 -0.02146912 C5.40652501 -0.01917559 6.84548987 -0.01666594 8.28445435 -0.01396179 C9.80928802 -0.01831198 11.3341195 -0.02349615 12.85894775 -0.02944946 C16.99125394 -0.0428184 21.12346855 -0.04342043 25.25579214 -0.04088616 C28.70995286 -0.03981493 32.16409516 -0.04470378 35.61825192 -0.04949158 C43.77002096 -0.0605797 51.92174392 -0.06102823 60.07351685 -0.05497742 C68.47254675 -0.04893875 76.8714091 -0.06124749 85.27041042 -0.08254749 C92.49098967 -0.10018314 99.71151568 -0.10616171 106.93211567 -0.10290974 C111.2404334 -0.10109972 115.54863162 -0.10370488 119.85692978 -0.11762428 C123.9101134 -0.13022986 127.96303651 -0.12823286 132.01621628 -0.11521339 C133.49963978 -0.11285391 134.98308178 -0.1155597 136.46648407 -0.12383652 C152.56014437 -0.20712393 152.56014437 -0.20712393 159.61697388 4.83882141 C165.57467708 11.04295029 167.5541356 15.60063422 167.84744263 24.19819641 C167.65550062 31.44592677 166.52582187 35.92604266 161.57400513 41.22554016 C155.82261795 46.6133339 150.76460739 48.5070166 142.81988525 48.52139282 C141.51059052 48.52847763 140.20129578 48.53556244 138.85232544 48.54286194 C137.41336025 48.54056842 135.97439539 48.53805876 134.53543091 48.53535461 C133.01059724 48.5397048 131.48576575 48.54488897 129.9609375 48.55084229 C125.82863131 48.56421123 121.69641671 48.56481326 117.56409311 48.56227899 C114.1099324 48.56120775 110.6557901 48.5660966 107.20163333 48.57088441 C99.0498643 48.58197252 90.89814134 48.58242105 82.74636841 48.57637024 C74.3473385 48.57033157 65.94847616 48.58264031 57.54947484 48.60394031 C50.32889558 48.62157596 43.10836957 48.62755453 35.88776958 48.62430257 C31.57945185 48.62249254 27.27125363 48.6250977 22.96295547 48.63901711 C18.90977186 48.65162268 14.85684874 48.64962568 10.80366898 48.63660622 C9.32024547 48.63424674 7.83680348 48.63695253 6.35340118 48.64522934 C-9.74025912 48.72851676 -9.74025912 48.72851676 -16.79708862 43.68257141 C-22.75479182 37.47844253 -24.73425035 32.9207586 -25.02755737 24.32319641 C-24.83561536 17.07546605 -23.70593662 12.59535016 -18.75411987 7.29585266 C-13.0027327 1.90805893 -7.94472214 0.01437622 0 0 Z M-6.59005737 19.26069641 C-8.01047558 22.10153282 -7.9045801 24.11546919 -7.59005737 27.26069641 C-5.35799306 30.1085026 -4.04012739 31.11067307 -0.59005737 32.26069641 C1.3371143 32.35806516 3.26750618 32.39567867 5.1971283 32.40113831 C6.40421951 32.40684845 7.61131073 32.41255859 8.85498047 32.41844177 C10.19467153 32.41968711 11.5343627 32.42081221 12.87405396 32.42182922 C14.28346385 32.42645803 15.69287248 32.43148278 17.10227966 32.43687439 C20.93296075 32.44999464 24.76362431 32.45644265 28.59432435 32.46088505 C30.98793603 32.46381647 33.38154293 32.46792141 35.77515221 32.47238922 C43.26520796 32.48606336 50.75525277 32.49573034 58.24532014 32.49959111 C66.88960638 32.50407137 75.53373446 32.52161806 84.17797261 32.55059171 C90.86087741 32.57221331 97.54373772 32.58229565 104.22667712 32.58363223 C108.21752832 32.58467995 112.20823083 32.59058054 116.19904518 32.60845184 C119.95423207 32.62494081 123.70915862 32.62708415 127.46436882 32.61831284 C128.84059471 32.61754289 130.21683465 32.62187966 131.59302521 32.63177109 C133.47590945 32.64450785 135.35889847 32.63681579 137.24180603 32.62818909 C138.82052349 32.63038893 138.82052349 32.63038893 140.43113422 32.63263321 C143.95895299 32.19214647 146.37113864 31.07925295 149.40994263 29.26069641 C150.83036083 26.41986 150.72446535 24.40592363 150.40994263 21.26069641 C148.17787832 18.41289022 146.86001264 17.41071975 143.40994263 16.26069641 C141.48277096 16.16332766 139.55237907 16.12571415 137.62275696 16.12025452 C136.41566574 16.11454437 135.20857452 16.10883423 133.96490479 16.10295105 C132.62521373 16.10170571 131.28552255 16.10058061 129.9458313 16.0995636 C128.53642141 16.09493479 127.12701277 16.08991005 125.71760559 16.08451843 C121.88692451 16.07139818 118.05626095 16.06495017 114.2255609 16.06050777 C111.83194922 16.05757636 109.43834232 16.05347141 107.04473305 16.0490036 C99.55467729 16.03532946 92.06463248 16.02566248 84.57456511 16.02180171 C75.93027887 16.01732145 67.28615079 15.99977476 58.64191264 15.97080112 C51.95900784 15.94917951 45.27614753 15.93909717 38.59320813 15.93776059 C34.60235693 15.93671287 30.61165443 15.93081228 26.62084007 15.91294098 C22.86565319 15.89645202 19.11072664 15.89430868 15.35551643 15.90307999 C13.97929054 15.90384993 12.60305061 15.89951316 11.22686005 15.88962173 C9.34397581 15.87688497 7.46098678 15.88457703 5.57807922 15.89320374 C3.99936177 15.89100389 3.99936177 15.89100389 2.38875103 15.88875961 C-1.13906773 16.32924636 -3.55125339 17.44213987 -6.59005737 19.26069641 Z " fill="#000000" transform="translate(184.59005737304688,287.7393035888672)"/>
</svg>
